# Car Factory — merged geometry
v 5.0000 0.0000 100.0000
v 5.0000 0.0000 155.0000
v 245.0000 0.0000 155.0000
v 245.0000 0.0000 100.0000
v 245.0000 10.0000 100.0000
v 245.0000 0.0000 100.0000
v 245.0000 0.0000 155.0000
v 245.0000 10.0000 155.0000
v 122.0000 10.0000 155.0000
v 122.0000 0.0000 155.0000
v 5.0000 0.0000 155.0000
v 5.0000 10.0000 155.0000
v 128.0000 10.0000 155.0000
v 128.0000 4.0000 155.0000
v 122.0000 4.0000 155.0000
v 122.0000 10.0000 155.0000
v 245.0000 10.0000 155.0000
v 245.0000 0.0000 155.0000
v 128.0000 0.0000 155.0000
v 128.0000 10.0000 155.0000
v 5.0000 10.0000 100.0000
v 5.0000 0.0000 100.0000
v 56.0000 0.0000 100.0000
v 56.0000 10.0000 100.0000
v 56.0000 10.0000 100.0000
v 56.0000 4.5000 100.0000
v 64.0000 4.5000 100.0000
v 64.0000 10.0000 100.0000
v 64.0000 10.0000 100.0000
v 64.0000 0.0000 100.0000
v 146.0000 0.0000 100.0000
v 146.0000 10.0000 100.0000
v 146.0000 10.0000 100.0000
v 146.0000 4.5000 100.0000
v 154.0000 4.5000 100.0000
v 154.0000 10.0000 100.0000
v 154.0000 10.0000 100.0000
v 154.0000 0.0000 100.0000
v 211.0000 0.0000 100.0000
v 211.0000 10.0000 100.0000
v 211.0000 10.0000 100.0000
v 211.0000 4.5000 100.0000
v 219.0000 4.5000 100.0000
v 219.0000 10.0000 100.0000
v 219.0000 10.0000 100.0000
v 219.0000 0.0000 100.0000
v 245.0000 0.0000 100.0000
v 245.0000 10.0000 100.0000
v 5.0000 10.0000 155.0000
v 5.0000 0.0000 155.0000
v 5.0000 0.0000 100.0000
v 5.0000 10.0000 100.0000
v 95.0000 0.0000 5.0000
v 95.0000 0.0000 90.0000
v 200.0000 0.0000 90.0000
v 200.0000 0.0000 5.0000
v 200.0000 10.0000 5.0000
v 200.0000 0.0000 5.0000
v 200.0000 0.0000 32.5000
v 200.0000 10.0000 32.5000
v 200.0000 10.0000 32.5000
v 200.0000 4.0000 32.5000
v 200.0000 4.0000 37.5000
v 200.0000 10.0000 37.5000
v 200.0000 10.0000 37.5000
v 200.0000 0.0000 37.5000
v 200.0000 0.0000 90.0000
v 200.0000 10.0000 90.0000
v 147.0000 10.0000 90.0000
v 147.0000 0.0000 90.0000
v 95.0000 0.0000 90.0000
v 95.0000 10.0000 90.0000
v 153.0000 10.0000 90.0000
v 153.0000 4.0000 90.0000
v 147.0000 4.0000 90.0000
v 147.0000 10.0000 90.0000
v 200.0000 10.0000 90.0000
v 200.0000 0.0000 90.0000
v 153.0000 0.0000 90.0000
v 153.0000 10.0000 90.0000
v 95.0000 10.0000 5.0000
v 95.0000 0.0000 5.0000
v 137.0000 0.0000 5.0000
v 137.0000 10.0000 5.0000
v 137.0000 10.0000 5.0000
v 137.0000 4.0000 5.0000
v 143.0000 4.0000 5.0000
v 143.0000 10.0000 5.0000
v 143.0000 10.0000 5.0000
v 143.0000 0.0000 5.0000
v 200.0000 0.0000 5.0000
v 200.0000 10.0000 5.0000
v 95.0000 10.0000 42.0000
v 95.0000 0.0000 42.0000
v 95.0000 0.0000 5.0000
v 95.0000 10.0000 5.0000
v 95.0000 10.0000 48.0000
v 95.0000 4.0000 48.0000
v 95.0000 4.0000 42.0000
v 95.0000 10.0000 42.0000
v 95.0000 10.0000 90.0000
v 95.0000 0.0000 90.0000
v 95.0000 0.0000 48.0000
v 95.0000 10.0000 48.0000
v 0.0000 0.0000 0.0000
v 0.0000 0.0000 160.0000
v 250.0000 0.0000 160.0000
v 250.0000 0.0000 0.0000
v 210.0000 0.0000 5.0000
v 210.0000 0.0000 75.0000
v 245.0000 0.0000 75.0000
v 245.0000 0.0000 5.0000
v 245.0000 9.0000 5.0000
v 245.0000 0.0000 5.0000
v 245.0000 0.0000 32.5000
v 245.0000 9.0000 32.5000
v 245.0000 9.0000 32.5000
v 245.0000 4.0000 32.5000
v 245.0000 4.0000 37.5000
v 245.0000 9.0000 37.5000
v 245.0000 9.0000 37.5000
v 245.0000 0.0000 37.5000
v 245.0000 0.0000 75.0000
v 245.0000 9.0000 75.0000
v 245.0000 9.0000 75.0000
v 245.0000 0.0000 75.0000
v 210.0000 0.0000 75.0000
v 210.0000 9.0000 75.0000
v 210.0000 9.0000 5.0000
v 210.0000 0.0000 5.0000
v 224.5000 0.0000 5.0000
v 224.5000 9.0000 5.0000
v 224.5000 9.0000 5.0000
v 224.5000 4.0000 5.0000
v 229.5000 4.0000 5.0000
v 229.5000 9.0000 5.0000
v 229.5000 9.0000 5.0000
v 229.5000 0.0000 5.0000
v 245.0000 0.0000 5.0000
v 245.0000 9.0000 5.0000
v 210.0000 9.0000 32.5000
v 210.0000 0.0000 32.5000
v 210.0000 0.0000 5.0000
v 210.0000 9.0000 5.0000
v 210.0000 9.0000 37.5000
v 210.0000 4.0000 37.5000
v 210.0000 4.0000 32.5000
v 210.0000 9.0000 32.5000
v 210.0000 9.0000 75.0000
v 210.0000 0.0000 75.0000
v 210.0000 0.0000 37.5000
v 210.0000 9.0000 37.5000
v 5.0000 0.0000 5.0000
v 5.0000 0.0000 85.0000
v 80.0000 0.0000 85.0000
v 80.0000 0.0000 5.0000
v 80.0000 12.0000 5.0000
v 80.0000 0.0000 5.0000
v 80.0000 0.0000 42.0000
v 80.0000 12.0000 42.0000
v 80.0000 12.0000 42.0000
v 80.0000 4.0000 42.0000
v 80.0000 4.0000 48.0000
v 80.0000 12.0000 48.0000
v 80.0000 12.0000 48.0000
v 80.0000 0.0000 48.0000
v 80.0000 0.0000 85.0000
v 80.0000 12.0000 85.0000
v 57.0000 12.0000 85.0000
v 57.0000 0.0000 85.0000
v 5.0000 0.0000 85.0000
v 5.0000 12.0000 85.0000
v 63.0000 12.0000 85.0000
v 63.0000 4.0000 85.0000
v 57.0000 4.0000 85.0000
v 57.0000 12.0000 85.0000
v 80.0000 12.0000 85.0000
v 80.0000 0.0000 85.0000
v 63.0000 0.0000 85.0000
v 63.0000 12.0000 85.0000
v 5.0000 12.0000 5.0000
v 5.0000 0.0000 5.0000
v 39.0000 0.0000 5.0000
v 39.0000 12.0000 5.0000
v 39.0000 12.0000 5.0000
v 39.0000 4.0000 5.0000
v 45.0000 4.0000 5.0000
v 45.0000 12.0000 5.0000
v 45.0000 12.0000 5.0000
v 45.0000 0.0000 5.0000
v 80.0000 0.0000 5.0000
v 80.0000 12.0000 5.0000
v 5.0000 12.0000 85.0000
v 5.0000 0.0000 85.0000
v 5.0000 0.0000 5.0000
v 5.0000 12.0000 5.0000
f 1 2 3
f 1 3 4
f 5 6 7
f 5 7 8
f 9 10 11
f 9 11 12
f 13 14 15
f 13 15 16
f 17 18 19
f 17 19 20
f 21 22 23
f 21 23 24
f 25 26 27
f 25 27 28
f 29 30 31
f 29 31 32
f 33 34 35
f 33 35 36
f 37 38 39
f 37 39 40
f 41 42 43
f 41 43 44
f 45 46 47
f 45 47 48
f 49 50 51
f 49 51 52
f 53 54 55
f 53 55 56
f 57 58 59
f 57 59 60
f 61 62 63
f 61 63 64
f 65 66 67
f 65 67 68
f 69 70 71
f 69 71 72
f 73 74 75
f 73 75 76
f 77 78 79
f 77 79 80
f 81 82 83
f 81 83 84
f 85 86 87
f 85 87 88
f 89 90 91
f 89 91 92
f 93 94 95
f 93 95 96
f 97 98 99
f 97 99 100
f 101 102 103
f 101 103 104
f 105 106 107
f 105 107 108
f 109 110 111
f 109 111 112
f 113 114 115
f 113 115 116
f 117 118 119
f 117 119 120
f 121 122 123
f 121 123 124
f 125 126 127
f 125 127 128
f 129 130 131
f 129 131 132
f 133 134 135
f 133 135 136
f 137 138 139
f 137 139 140
f 141 142 143
f 141 143 144
f 145 146 147
f 145 147 148
f 149 150 151
f 149 151 152
f 153 154 155
f 153 155 156
f 157 158 159
f 157 159 160
f 161 162 163
f 161 163 164
f 165 166 167
f 165 167 168
f 169 170 171
f 169 171 172
f 173 174 175
f 173 175 176
f 177 178 179
f 177 179 180
f 181 182 183
f 181 183 184
f 185 186 187
f 185 187 188
f 189 190 191
f 189 191 192
f 193 194 195
f 193 195 196
